# xmcd
#
# Track frame offsets:
#	150
#	17057
#	38785
#	58072
#	74436
#	92714
#	111014
#	132542
#	152948
#	170813
#	191061
#	209557
#	225617
#	243785
#	258803
#	279844
#
# Disc length: 3788 seconds
#
# Revision: 1
# Processed by: cddbd v1.5.2PL0 Copyright (c) Steve Scherf et al.
# Submitted via: audiograbber 1.83.01
#
DISCID=e50eca10
DTITLE=Dj Amorim and Dj Beleza Apresentam - 100% Kizomba 2 CD 2
DYEAR=2009
DGENRE=Kizomba
TTITLE0=Philip Monteiro - Sex Crimes
TTITLE1=Roger - Cose Della Vita
TTITLE2=Thayna - Mal Sans Loi
TTITLE3=Celestino - Cuida Di Bo
TTITLE4=Daniel Nascimento - Raxa Tarraxa
TTITLE5=Soumia - La Isla Bonita
TTITLE6=Kimberly and Alan Cave - Dispidida (Club Mix)
TTITLE7=Beto Dias - Amor é Cegu
TTITLE8=Katia Cadet - A Mes Pieds (Club Mix)
TTITLE9=David Quixito - Sou Poeta
TTITLE10=Isah - Djan Apaixona
TTITLE11=Laury - Je Trouverai
TTITLE12=Dj Kadu - Mónica Exótica
TTITLE13=Jocelyn Deloumeaux - Besoin De Ton Amour
TTITLE14=Yola Semedo - Vem Me Amar (Remix Dj Amorim)
TTITLE15=Dj Amorim - Intro 100% Kizomba Vol.1
EXTD=
EXTT0=
EXTT1=
EXTT2=
EXTT3=
EXTT4=
EXTT5=
EXTT6=
EXTT7=
EXTT8=
EXTT9=
EXTT10=
EXTT11=
EXTT12=
EXTT13=
EXTT14=
EXTT15=
PLAYORDER=
